# xmcd
#
# Track frame offsets: 
#        150
#        19850
#        43857
#        68005
#        88812
#        115917
#        132982
#
# Disc length: 2379 seconds
#
# Revision: 0
# Processed by: cddbd v1.5.2PL0 Copyright (c) Steve Scherf et al.
# Submitted via: ExactAudioCopy v0.99pb5
#
DISCID=5d094907
DTITLE=Muddy Waters - Muddy "Mississippi" Waters Live
DYEAR=1900
DGENRE=Blues
TTITLE0=Streamline Woman
TTITLE1=Mannish Boy
TTITLE2=She's Nineteen Years Old
TTITLE3=Nine Below Zero
TTITLE4=Howling Wolf
TTITLE5=Baby Please Don't Go
TTITLE6=Deep Down in Florida
EXTD=
EXTT0=
EXTT1=
EXTT2=
EXTT3=
EXTT4=
EXTT5=
EXTT6=
PLAYORDER=
